<?xml version="1.0" encoding="UTF-8"?>
<svg id="Layer_1" data-name="Layer 1" xmlns="http://www.w3.org/2000/svg" viewBox="0 0 120 120">
  <defs>
    <style>
      .cls-1 {
        fill: red;
      }

      .cls-2 {
        fill: gold;
      }

      .cls-3 {
        fill: #ff0;
      }
    </style>
  </defs>
  <g>
    <path class="cls-3" d="M59.5,98.5c-21.5,0-39-17.5-39-39S38,20.5,59.5,20.5s39,17.5,39,39-17.5,39-39,39Z"/>
    <path class="cls-1" d="M59.5,21c21.23,0,38.5,17.27,38.5,38.5s-17.27,38.5-38.5,38.5-38.5-17.27-38.5-38.5S38.27,21,59.5,21M59.5,20c-21.82,0-39.5,17.68-39.5,39.5s17.68,39.5,39.5,39.5,39.5-17.68,39.5-39.5-17.68-39.5-39.5-39.5h0Z"/>
  </g>
  <g>
    <path class="cls-2" d="M59.5,82.5c-12.13,0-22-10.32-22-23s9.87-23,22-23,22,10.32,22,23-9.87,23-22,23Z"/>
    <path class="cls-3" d="M59.5,37c11.86,0,21.5,10.09,21.5,22.5s-9.64,22.5-21.5,22.5-21.5-10.09-21.5-22.5,9.64-22.5,21.5-22.5M59.5,36c-12.43,0-22.5,10.52-22.5,23.5s10.07,23.5,22.5,23.5,22.5-10.52,22.5-23.5-10.07-23.5-22.5-23.5h0Z"/>
  </g>
</svg>